<svg xmlns="http://www.w3.org/2000/svg" xmlns:xlink="http://www.w3.org/1999/xlink" xml:space="preserve" style="shape-rendering:geometricPrecision;text-rendering:geometricPrecision;image-rendering:optimizeQuality;" viewBox="0 0 12.1928 18.102" x="0px" y="0px" fill-rule="evenodd" clip-rule="evenodd"><defs><style type="text/css">
   
    .fil0 {fill:black}
   
  </style></defs><g><path class="fil0" d="M6.09641 0c3.36697,0 6.09641,2.72938 6.09641,6.09635 0,3.45028 -3.44864,5.94176 -5.86148,8.28983 -0.130692,0.127164 -0.339287,0.127164 -0.469979,0 -2.41278,-2.34807 -5.86136,-4.83954 -5.86136,-8.28983 0,-3.36697 2.72944,-6.09635 6.09641,-6.09635zm0.445896 5.3929c1.26964,0.0747417 2.29711,1.0493 2.45413,2.29504l0.1597 0c0.0203122,0 0.0369756,0.0166025 0.0369756,0.0369148l0 0.147841c0,0.0203122 -0.0166633,0.0369148 -0.0369756,0.0369148l-4.36166 0c-0.00492602,-0.537484 0.0124063,-1.07734 0.0720051,-1.62315 0.0295561,-0.199048 0.0785731,-0.377358 0.199534,-0.543869 0.345369,-0.200507 0.740484,-0.324874 1.16236,-0.349687l0 -0.122421c0,-0.0501724 0.0409286,-0.091101 0.0911618,-0.091101l0.131604 0c0.0501724,0 0.0911618,0.0409894 0.0911618,0.091101l0 0.122421zm-1.96883 -2.36273c0.0264546,0.0540646 0.0381311,0.107095 0.0347254,0.160126 -0.00346646,0.0530916 -0.0190959,0.100953 -0.0469492,0.143584 -0.0280966,0.0437869 -0.065437,0.0769311 -0.11263,0.101865 -0.0601461,0.0294953 -0.113846,0.0434828 -0.161221,0.0437869 -0.0470101,-0.000851411 -0.0883643,-0.00924389 -0.123394,-0.0257856 -0.0349687,-0.0164201 -0.063795,-0.0340564 -0.0859317,-0.053274 -0.0232314,-0.0195825 -0.0395906,-0.0330834 -0.050659,-0.0417191 -0.0194,-0.0139267 -0.0440909,-0.0213461 -0.0748026,-0.0218934 -0.0299818,-0.00103386 -0.0605718,0.00595988 -0.0912226,0.0205555 -0.0555242,0.0291912 -0.105697,0.0670182 -0.151673,0.113116 -0.0451856,0.0457938 -0.0843505,0.0941417 -0.117738,0.144375 -0.0330226,0.050963 -0.0589298,0.0973649 -0.0779649,0.140361 -0.0190959,0.0429354 -0.0302251,0.0751674 -0.0339348,0.0979731 -0.0036489,0.017089 -0.00930471,0.0322928 -0.0167241,0.0474966 -0.00754107,0.0152038 -0.0173323,0.0258464 -0.028279,0.0323536 -0.0113116,0.00577743 -0.022684,0.00583825 -0.0325969,0.00139875 -0.0110075,-0.00492602 -0.0198257,-0.0147172 -0.0266978,-0.0283398 -0.00802759,-0.0158727 -0.0130752,-0.0370364 -0.0166633,-0.0627612 -0.00279749,-0.0261505 -0.00340564,-0.0552809 -0.0024326,-0.0872088 0.000304075,-0.0181837 0.00346646,-0.0530916 0.0114941,-0.104663 0.0076627,-0.052301 0.0220759,-0.113846 0.0440301,-0.184817 0.0215285,-0.0718226 0.0521185,-0.14626 0.0926214,-0.2238 0.0400771,-0.0783298 0.0923173,-0.15143 0.157085,-0.222279 0.065133,-0.0701806 0.14474,-0.130509 0.239551,-0.179648 0.0751674,-0.0372188 0.147112,-0.0585041 0.216441,-0.0642207 0.0689035,-0.00456113 0.132638,0.00297994 0.191872,0.0242652 0.058869,0.0204947 0.110988,0.0500508 0.15593,0.0899455 0.0450032,0.0399555 0.0808841,0.0863574 0.107764,0.139206zm-1.25066 0.97146c0.829883,0.159396 1.74947,-0.407157 2.56658,-0.111048 0.333692,1.81655 -2.64904,1.7938 -2.56658,0.111048zm-0.126435 -0.0597812c0.0608151,-0.446018 0.156356,-0.660695 0.257552,-0.854087l-0.142125 0c-0.44024,1.03161 -0.363127,1.74746 0.750276,2.41734 0.280479,0.193818 0.353944,0.400042 0.389156,0.648654 0.0645856,0.619341 0.0608759,1.22859 0.0370972,1.83686 0.0181229,0.442551 -0.272756,0.609002 -0.807199,0.63424 -0.121326,0.0117981 -0.172532,0.0457938 -0.189439,0.0906145 0.625666,0.0847154 1.62753,0.0847154 2.2532,0 -0.0169066,-0.0448207 -0.0681737,-0.0788163 -0.189439,-0.0906145 -0.534443,-0.0252383 -0.825382,-0.191689 -0.807199,-0.63424 -0.0237787,-0.608272 -0.02761,-1.21752 0.0370364,-1.83686 0.0352119,-0.248612 0.108737,-0.454836 0.389217,-0.648654 1.1134,-0.669878 1.19052,-1.38573 0.750215,-2.41734l-0.157268 0c0.0956013,0.203305 0.186946,0.420962 0.266674,0.842046 0.0353944,0.333449 -0.0582608,0.643971 -0.231584,0.922504 -0.566067,0.683257 -1.8025,0.683257 -2.36857,0 -0.173262,-0.278533 -0.272938,-0.577013 -0.237605,-0.910463zm1.24574 3.96776l-0.864061 0c-0.0203122,0 -0.0369756,-0.0166025 -0.0369756,-0.0369148l0 -0.147841c0,-0.0203122 0.0166633,-0.0369148 0.0369756,-0.0369148l0.1597 0c0.0673223,-0.533835 0.294588,-1.01792 0.632112,-1.4027l0.000182445 0.0012163c0.0596596,0.545815 0.0769919,1.08567 0.0720659,1.62315zm-1.20602 0.0923781l1.20493 0c-0.000973041,0.0739511 -0.0158119,0.145409 -0.02238,0.221671l-1.18255 0c-0.0203731,0 -0.0369756,-0.0166025 -0.0369756,-0.0369148l0 -0.147781c0,-0.0203731 0.0166025,-0.0369756 0.0369756,-0.0369756zm1.57766 0l4.70265 0c0.0203122,0 0.0369148,0.0167241 0.0369148,0.0369756l0 0.147781c0,0.0202514 -0.0166633,0.0369148 -0.0369148,0.0369148l-4.66202 0c-0.0234746,-0.0690251 -0.0396514,-0.14772 -0.0406245,-0.221671zm1.52786 -7.37571c0.046706,0 0.0845938,0.037827 0.0845938,0.0845938 0,0.046706 -0.0378878,0.0845938 -0.0845938,0.0845938 -0.0162376,0 -0.0314414,-0.00456113 -0.0443342,-0.0125279 -0.0616057,-0.00206771 -0.123394,-0.00310157 -0.185547,-0.00310157 -2.96583,0 -5.38001,2.36151 -5.46472,5.30685l-0.00115549 -0.00267586c0.00450032,0.00991286 0.00693292,0.0209204 0.00693292,0.0324753 0,0.0435436 -0.0352727,0.0788772 -0.0788772,0.0788772 -0.0436044,0 -0.0788772,-0.0353336 -0.0788772,-0.0788772 0,-0.015447 0.0044395,-0.0297994 0.0120414,-0.0419016l-0.000425706 0.000608151c0.00748026,-3.01296 2.45231,-5.45317 5.46703,-5.45317 0.113116,0 0.22532,0.00340564 0.336672,0.0101561l-0.00115549 0.000547336c0.00991286,-0.00419624 0.0209204,-0.0064464 0.0324144,-0.0064464zm-0.245206 0.990313c2.47408,0 4.47976,2.00568 4.47976,4.47976 0,1.8132 -1.07716,3.37481 -2.62648,4.07966 -0.564729,0.257005 -1.19234,0.400163 -1.85328,0.400163 -0.670851,0 -1.30728,-0.147477 -1.87858,-0.411779 -1.53576,-0.71032 -2.60118,-2.26475 -2.60118,-4.06804 0,-2.47408 2.00568,-4.47976 4.47976,-4.47976z"/></g><text x="0" y="29.4816" fill="#000000" font-size="5px" font-weight="bold" font-family="'Helvetica Neue', Helvetica, Arial-Unicode, Arial, Sans-serif">Created by Nick Novell</text><text x="0" y="34.4816" fill="#000000" font-size="5px" font-weight="bold" font-family="'Helvetica Neue', Helvetica, Arial-Unicode, Arial, Sans-serif">from the Noun Project</text></svg>